<svg xmlns="http://www.w3.org/2000/svg" width="100" height="100" viewBox="0 0 100 100">
  <path
    fill="rgba(217, 119, 6, 1)"
    d="m 46.318035 3.6101513 c -0.05671 -0.00203 -0.05874 0.2167206 -0.04355 0.6329457 0.02228 0.5985134 0.03342 2.1489771 0.02329 3.4452498 L 46.283602 10.043917 45.545335 8.3628137 C 44.747317 6.5389175 42.841391 4.062834 42.23275 4.062834 c -0.208619 0 0.224822 1.062336 0.96309 2.3616469 1.337794 2.3545579 1.897825 4.2787131 1.728701 5.9537401 -0.125576 1.255764 -1.633506 3.693365 -3.052317 4.9309 -1.667938 1.456281 -2.111506 1.043094 -3.453351 -3.220428 C 37.811245 12.158462 36.90993 10.053032 36.414714 9.4069209 35.820251 8.6311827 35.580238 8.478263 35.702776 8.958289 c 0.102284 0.3990089 0.575221 2.250249 1.052209 4.114653 0.476988 1.864405 0.759535 3.534369 0.628895 3.714632 -0.385844 0.535725 -2.239109 0.377742 -4.078196 -0.350399 -1.145378 -0.452683 -1.679078 -0.532687 -1.596035 -0.239 0.185326 0.657251 2.395066 1.847188 4.683798 2.51963 1.220319 0.3585 2.004159 0.79498 1.971752 1.099806 -0.02836 0.278496 -0.807132 1.098794 -1.728701 1.825922 L 34.96147 22.965124 34.8764 21.669863 c -0.103296 -1.61629 -0.473949 -2.101379 -0.607627 -0.792954 -0.150895 1.477549 -1.258803 3.362208 -2.379876 4.050852 -0.549903 0.337234 -1.019802 0.785866 -1.038031 0.99651 -0.02127 0.210644 -0.308878 0.649149 -0.636997 0.975243 -0.215707 0.214695 -1.440078 1.08259 -1.434001 1.206141 0.0081 0.184314 1.455268 -0.590412 2.110494 -0.344322 0.66839 0.251152 1.139302 0.791941 1.123099 0.973217 -0.02026 0.195453 -0.463823 0.578259 -1.206142 0.08507 -0.463822 -0.307865 -0.990433 -0.241026 -1.720599 -0.03544 -0.676493 0.181275 -0.87701 0.566106 -1.539324 0.531674 -0.484077 -0.02633 0.873971 -0.746369 0.549903 -0.939798 -0.181275 -0.107347 -1.025878 0.560031 -1.145378 0.346348 -0.08709 -0.154945 0.554966 -0.536738 1.040056 -0.834475 0.563068 -0.346348 2.031502 -0.977268 0.730166 -1.042082 -0.311916 -0.01114 -0.138742 -0.453695 0.342297 -0.444581 1.021828 0.01114 1.113985 0.467873 1.226396 -3.621462 0.07697 -2.813317 0.05063 -3.03105 -0.771688 -1.697307 -0.976255 1.585909 -0.570157 0.542814 -0.140767 -2.043655 0.363564 -2.192524 0.676493 -3.077635 1.367163 -3.853373 0.858781 -0.965116 2.434562 -4.300993 3.111054 -6.5887116 0.183301 -0.6207931 -0.51142 0.2602673 -1.620341 2.0568206 -1.067399 1.729714 -2.132773 3.259923 -2.367723 3.396639 -0.754469 0.438498 -2.29278 -1.684148 -3.141434 -4.3313804 -0.453695 -1.4137475 -0.857768 -2.3069605 -0.896251 -1.9859304 -0.209631 1.7145232 0.385844 4.6362008 1.319565 6.4833888 0.841565 1.661862 1.016764 2.466969 0.867896 3.922238 -0.356475 3.487784 -1.553502 4.610883 -3.750077 3.515127 -2.213791 -1.103857 -4.506573 -5.47979 -4.700001 -8.967574 l -0.106335 -1.913015 -0.431416 1.402607 c -0.603577 1.957575 -0.180263 4.809375 1.064362 7.157856 0.570157 1.075502 0.866882 2.011249 0.662314 2.081126 -1.223358 0.414199 -3.680199 -1.323616 -4.772917 -3.37436 l -0.587373 -1.103857 0.124563 1.269942 c 0.299763 3.096876 2.453804 4.392136 8.95846 5.380544 3.634627 0.551929 4.166302 0.224823 4.204785 1.342858 0.01418 0.389894 -0.170136 0.957014 -0.40306 1.255764 -0.363564 0.467873 -0.499268 0.435467 -0.975243 -0.229886 -0.725102 -1.013726 -1.733765 -1.538311 -3.691339 -1.910989 -1.126137 -0.213683 -1.717561 -0.1752 -2.000108 0.126589 -0.58231 0.623831 0.426352 2.742427 1.778324 3.734886 1.378302 1.0117 1.947447 1.059297 1.077527 0.09114 -0.358501 -0.399009 -0.623832 -0.964103 -0.595476 -1.255764 0.02937 -0.292675 -0.254191 -0.705861 -0.63092 -0.919544 -0.377742 -0.213682 -0.663327 -0.613704 -0.634971 -0.890175 0.04253 -0.416225 0.289636 -0.40306 1.444129 0.06886 1.170696 0.479013 1.374252 0.732191 1.286145 1.600086 -0.05874 0.568132 0.05772 1.03398 0.25723 1.03398 0.199504 0 0.397996 -0.285585 0.439517 -0.634971 0.06988 -0.590411 0.09317 -0.591424 0.36964 -0.0162 0.499268 1.039044 -2.022388 4.201746 -3.995153 5.011917 -0.893213 0.366602 -1.750981 0.993471 -1.922129 1.402608 -0.377742 0.900301 0.132665 2.216828 0.860806 2.216828 0.292674 0 0.513446 0.161022 0.494204 0.359514 -0.03342 0.333182 0.926632 0.361538 2.126697 0.361538 2.332279 0 2.741415 0.413187 2.595584 2.381901 l -0.01013 0.09722 c -0.219759 3.831093 -0.61573 6.171473 -1.162595 11.380869 -0.313941 2.991555 -0.647123 6.094507 -0.743331 6.895563 -0.221784 1.854278 0.573195 3.779446 2.681664 6.499593 0.918531 1.184874 1.912002 2.898385 2.20974 3.807801 0.902327 2.759643 1.689205 7.619653 1.512993 9.344303 -0.09114 0.895239 0.01924 2.139863 0.243051 2.768758 0.833463 2.333291 0.594463 5.507134 0.446607 6.685932 -0.303814 0.672441 -0.286598 1.327666 -0.29875 1.689205 -17.961479 0.207606 -30.65583807 0.704848 -30.65583807 1.287158 0 0.767637 22.03359907 1.392481 49.18139807 1.392481 27.147799 0 49.181397 -0.624844 49.181397 -1.392481 0 -0.400021 -6.072228 -0.758522 -15.64743 -1.012713 l -0.02532 -0.180263 c 0.116462 -1.910989 1.410709 -0.375716 0.975242 -1.591985 -0.150894 -0.510407 -0.887136 -1.472484 -1.121073 -2.326202 -0.236975 -0.860806 -1.130188 -3.552597 -2.027452 -5.945638 -0.897263 -2.393041 -1.705408 -4.719243 -1.797565 -5.1699 -0.09216 -0.450657 -0.589399 -1.051196 -1.105883 -1.332731 -1.406658 -0.767636 -3.625513 -3.662983 -4.278713 -5.580049 -0.40711 -1.197026 -0.529649 -2.870028 -0.417237 -5.684358 0.112411 -2.795088 -0.01013 -4.49037 -0.409137 -5.665117 -0.826373 -2.430511 -1.280069 -2.44874 -0.959039 -0.03342 0.371666 2.793062 0.352424 2.844711 -0.609653 1.544387 -0.459772 -0.621806 -0.904353 -1.070438 -0.98537 -0.99651 -0.08102 0.07393 0.193428 1.576795 0.609653 3.340941 0.416225 1.764146 0.665353 3.289292 0.55598 3.388538 -0.109373 0.100258 -0.591425 -0.213683 -1.072463 -0.696747 -0.769662 -0.773713 -0.719027 -0.5337 0.409136 2.021375 1.998083 4.524802 3.239669 6.741631 4.857984 8.672875 l 1.493752 1.784401 -1.807693 -1.396532 c -1.385391 -1.070438 -1.732752 -1.218294 -1.477548 -0.63092 1.277031 2.94902 -1.352985 -0.722064 -5.597265 -7.817132 -1.826935 -3.054343 -3.518165 -5.908168 -3.758178 -6.34566 -0.240013 -0.437492 0.715988 0.42939 2.124672 1.924155 2.323163 2.466969 2.498363 2.585456 1.878582 1.269942 -0.375716 -0.797005 -1.61629 -3.11308 -2.755592 -5.142557 -2.358609 -4.200734 -2.004159 -4.569362 0.688645 -0.715988 0.99651 1.427925 1.930231 2.751541 2.073024 2.942944 0.143805 0.191403 0.07899 -0.406098 -0.140767 -1.329692 -0.537751 -2.255312 -2.757618 -5.914245 -4.494421 -7.409009 -0.777764 -0.669404 -1.302349 -1.218294 -1.16462 -1.218294 0.433441 0 2.379876 1.141328 4.308081 2.527732 2.924716 2.100367 2.830533 2.06796 2.660398 0.927645 -0.292675 -2.004159 3.696402 0.319005 4.580501 0.873971 1.6649 1.341845 1.527171 0.138742 0.624844 -1.030942 -1.560585 -2.02238 -6.872265 -4.608849 -9.620768 -5.067608 -2.22088 -0.572183 -3.207263 -0.496229 -8.485523 -0.105322 C 49.428076 46.545135 45.099741 46.51374 43.323442 45.862566 42.784679 45.6661 42.412 45.579006 42.18414 45.577994 c -0.986383 -10e-4 0.768649 1.641607 3.700453 3.170804 1.041069 0.542814 2.225944 1.323616 2.633054 1.734778 0.506357 0.513445 0.755484 0.593449 0.788904 0.257229 0.02836 -0.270395 -0.652187 -1.214243 -1.508943 -2.098342 l -1.55654 -1.608188 1.371214 0.595475 c 1.436027 0.624844 3.131309 1.871494 4.654429 3.417907 0.954989 0.971192 1.25779 0.705861 0.562056 -0.494204 -0.228873 -0.393946 -0.674467 -1.205129 -0.989421 -1.803642 l -0.57117 -1.089679 1.491726 1.303361 c 0.821311 0.715988 2.164168 2.316075 2.984466 3.556649 1.550464 2.34443 1.816807 2.312024 1.182849 -0.144818 -0.481039 -1.865418 -0.481039 -1.869469 0.33622 -1.054235 1.320578 1.31754 2.171257 3.660958 2.116571 5.841329 l -0.05367 2.102393 -0.385844 -1.734778 c -0.42939 -1.924155 -0.862831 -1.969727 -1.390455 -0.146843 -0.549903 1.896811 -2.573304 4.354666 -4.634175 5.633723 -1.737815 1.077526 -5.698536 2.494312 -6.009439 2.147964 -0.07292 -0.08102 0.08405 -0.704848 0.350399 -1.38843 0.266343 -0.683581 0.534712 -1.814781 0.5975 -2.513553 0.110386 -1.240574 0.08304 -1.216269 -1.139302 0.945874 -0.689657 1.219306 -1.480586 2.346456 -1.754019 2.506464 -0.371666 0.215708 -0.410149 0.113424 -0.151907 -0.403059 0.591425 -1.185887 1.337794 -6.192741 0.959039 -6.441868 -0.207606 -0.136717 -0.516483 0.460784 -0.767636 1.489701 -0.404073 1.65376 -2.171257 7.148741 -2.759643 8.574641 -0.267356 0.648137 -0.118488 0.677505 2.444689 0.48509 1.501854 -0.112411 4.097437 -0.565094 5.765376 -1.002586 l 3.032063 -0.79498 2.550011 2.550012 c 1.402608 1.402607 3.430059 3.546521 4.50151 4.764815 1.878582 2.135811 1.941371 2.283667 1.754019 4.108576 -0.147856 1.457295 -0.811183 2.868004 -2.531783 6.136029 -1.228421 2.334304 -2.083151 2.50849 -2.25835 3.123207 l -0.797005 0.504331 c -2.22088 -0.01215 -4.423531 -0.01823 -6.729479 -0.01823 -4.247318 0 -8.299183 0.02025 -12.231548 0.05165 0.104309 -0.951951 -0.198492 -1.423875 -0.284572 -1.928206 0.289636 -3.628551 0.432428 -5.603341 2.090239 -10.277012 0.840552 -2.365698 1.465396 -4.37087 1.38843 -4.455938 -0.07697 -0.08507 -0.650162 0.585348 -1.273993 1.491727 -0.623831 0.907391 -1.207154 1.647684 -1.29526 1.647684 -0.08811 0 0.22381 -0.775738 0.694721 -1.722625 1.432989 -2.887245 2.424435 -5.575998 1.956562 -5.302566 -0.302801 0.176212 -0.300776 -0.215708 0.0041 -1.348934 1.112971 -4.136932 1.537298 -6.090456 1.693256 -7.761432 l 0.16811 -1.811744 -0.996509 1.994032 -0.994485 1.994032 0.20153 -4.16934 c 0.111399 -2.293795 0.203556 -4.578476 0.205581 -5.077743 0.0061 -1.572744 -0.797005 1.630468 -1.542362 6.165397 -0.720039 4.37492 -0.956001 5.108125 -1.386404 4.297954 -0.168111 -0.315966 -0.345335 0.154945 -0.494204 1.321591 l -0.231911 1.813769 -0.395971 -2.539884 c -0.48509 -3.121182 -0.442556 -4.50151 0.118487 -3.876666 0.710925 0.790929 0.874984 0.454708 0.713963 -1.469447 -0.08709 -1.046132 0.09722 -3.60222 0.411161 -5.675244 0.355463 -2.343418 0.426353 -3.57589 0.188365 -3.261949 -0.210644 0.278497 -1.370201 2.066948 -2.573304 3.975912 -1.203103 1.908964 -2.640143 3.949581 -3.192072 4.533916 l -1.002585 1.060311 0.884098 -1.506917 c 1.974791 -3.36322 3.795649 -7.370526 4.745573 -10.442085 0.551929 -1.785413 0.91043 -2.891295 -0.678517 -1.040056 -3.891857 3.961734 -4.603794 5.783604 -0.284573 -2.552037 2.580393 -3.630576 -10.482593 10.328661 -2.133786 -1.180823 3.61336 -5.316744 -6.861131 7.134563 -0.520535 -3.417907 1.02993 -1.711485 -1.395518 0.200517 -4.119716 -0.209631 1.465395 -0.344323 3.930339 -0.74637 4.721268 -2.96725 4.128831 0.845616 4.640251 9.639003 5.433206 8.770095 0.26533 -4.688861 -0.146844 -7.561928 -1.396532 -10.645639 -0.63092 -1.55654 -1.047145 -3.029025 -0.927645 -3.271063 0.120513 -0.243052 0.819285 -0.805107 1.552489 -1.251714 0.733204 -0.446606 1.620341 -1.19095 1.969727 -1.65376 0.828399 -1.09373 1.86643 -4.642277 1.483625 -5.069642 -0.780802 -0.86992 -5.138506 2.774834 -5.808922 4.86001 -0.185327 0.577247 -0.48509 0.952963 -0.66434 0.834476 -0.176212 -0.118488 -0.185327 -0.542815 -0.01823 -0.941823 0.271407 -0.647124 0.214695 -0.680544 -0.518509 -0.308878 -1.931244 0.980306 -1.288171 0.04557 1.157531 -1.68718 3.884767 -2.748503 7.497115 -6.292999 8.877443 -8.711358 1.028916 -1.801616 1.248675 -2.574316 1.535273 -5.3683917 C 47.472528 7.0351469 47.415816 6.134845 46.883129 4.8031273 46.563111 4.0010585 46.399052 3.6273674 46.323098 3.6243293 Z M 41.49347 21.862279 c 0.05772 0.0041 0.106334 0.02937 0.146843 0.07291 0.363564 0.405086 -0.621806 3.169792 -1.417798 3.975912 -0.738268 0.746369 -0.782828 0.754471 -0.506357 0.09114 0.651175 -2.109481 -0.199504 -0.187352 -0.967141 0.634971 -1.939345 2.077075 -2.083151 1.707434 -1.448179 -0.07697 0.312928 -0.879035 1.096768 -2.313037 1.024865 -1.242599 -0.0638 0.947899 0.774726 -0.454708 1.240574 -1.297285 0.73928 -1.337794 1.526158 -2.202651 1.927193 -2.158092 z m -11.583412 6.999873 c 0.01722 -0.01924 0.09722 -0.0041 0.162034 0.106335 0.02836 0.05165 0.04962 0.118487 0.04962 0.197479 -0.01013 0.06481 -0.03747 0.13469 -0.08507 0.197479 -0.02633 0.03443 -0.06886 0.05975 -0.106335 0.08709 0.545852 -0.171149 0.911442 -0.498255 0.998535 -0.431416 0.05772 0.04659 -0.154945 0.740293 -1.103857 0.957014 -0.04051 0.01114 -0.08203 0.02025 -0.122539 0.02734 -1.042081 0.16406 -1.509955 -0.490153 -1.469446 -0.549903 0.07292 -0.107347 0.671428 0.191403 1.384378 0.08304 -0.05975 -0.01519 -0.117474 -0.03646 -0.160008 -0.07089 -0.09317 -0.07697 -0.134691 -0.180263 -0.138742 -0.269382 -0.0061 -0.142793 0.06279 -0.229886 0.105322 -0.274445 -0.01924 0.03038 -0.04051 0.07089 -0.04355 0.138741 -0.0041 0.06988 0.02025 0.157984 0.08709 0.22381 0.03038 0.03038 0.06988 0.05975 0.116462 0.06887 0.04456 0.01924 0.09621 0.02532 0.144818 0.01823 0.04861 -0.01114 0.09013 -0.03038 0.120513 -0.0638 0.03342 -0.03443 0.05266 -0.07899 0.06177 -0.122538 0.02127 -0.05165 0.02532 -0.102284 0.02127 -0.144818 -0.0091 -0.09317 -0.04456 -0.152919 -0.02329 -0.176212 z m -3.548547 0.33622 v 0.0041 c 0.02329 -0.0041 0.03544 -0.0051 0.0476 0.002 0.296725 0.331157 -1.21323 2.734325 -1.956561 3.111054 -1.158544 0.587374 -1.827947 0.470912 -0.873972 -0.151907 0.457747 -0.29875 1.247663 -1.123099 1.75807 -1.831998 0.44762 -0.61978 0.872959 -1.085628 1.024866 -1.133226 z m 4.963307 1.398557 v 0.002 h 0.002 c 0.232924 0 0.127602 0.21672 -0.03139 0.654212 -0.222797 0.611679 -0.151907 0.66434 0.466861 0.350399 1.28412 -0.651175 0.727128 0.281534 -0.643073 1.077527 -1.524133 0.886124 -1.928206 0.947899 -1.583883 0.239 0.204568 -0.421289 -0.11545 -0.478001 -1.742879 -0.312928 -1.368176 0.139754 -1.978842 0.07393 -1.950486 -0.209632 0.02329 -0.226848 0.366602 -0.413187 0.763586 -0.413187 0.396983 0 1.614264 -0.327106 2.703944 -0.726115 1.205128 -0.439518 1.780349 -0.660289 2.015299 -0.661302 z m -10.048139 2.712046 c 0.251152 0 -0.02127 0.357487 -0.06481 0.79498 -0.04355 0.437492 0.15292 0.792954 -0.09722 0.792954 -0.250141 0 -0.416226 -0.355462 -0.371666 -0.792954 0.04456 -0.437493 0.28356 -0.79498 0.5337 -0.79498 z m 6.806444 17.520949 c 0.174187 -0.03443 0.457746 0.585348 0.954989 2.048718 0.969166 2.846736 0.493191 3.368284 -0.616743 0.676492 -0.376729 -0.911441 -0.59345 -2.0234 -0.481038 -2.474058 0.03848 -0.152919 0.08405 -0.240013 0.142792 -0.251152 z m 31.498415 12.960701 c 0.904352 0 3.311571 2.445702 3.949581 4.013382 0.718013 1.760096 0.697759 1.894786 -0.241026 1.585909 -0.672442 -0.220772 -0.634971 -0.0638 0.300776 1.293234 0.96309 1.395519 0.98537 1.499829 0.229886 1.074489 -0.460785 -0.259255 -1.74693 -1.536286 -2.853826 -2.838635 -1.107908 -1.301336 -1.955549 -2.421397 -1.884659 -2.484185 0.07089 -0.06279 0.70181 0.134691 1.404633 0.441543 1.232472 0.537751 1.261841 0.532687 0.913467 -0.134691 -0.481038 -0.920556 -2.0234 -1.862379 -3.075609 -1.875544 -0.824349 -0.01215 -0.824349 -0.02734 -0.08912 -0.543827 0.416225 -0.291662 1.021827 -0.531675 1.345897 -0.531675 z m -24.19169 3.625513 h 0.002 c 1.435015 0 1.244625 0.437492 0.421289 5.330922 -0.430403 2.553049 -0.565094 5.049387 -0.59345 5.548655 -0.03241 0.498254 -0.164059 2.701918 -0.294699 4.895455 -0.279509 4.714179 -0.424327 4.59873 -0.6532 -0.51851 -0.09317 -2.079099 -0.09823 -4.607844 -0.01013 -5.619544 0.08709 -1.011701 0.160008 -2.035554 -0.05367 -1.61224 -0.339259 0.672442 -0.574209 0.642061 -0.797005 -0.52256 -0.297738 -1.940358 -1.573756 -6.200842 -0.811184 -4.885327 0.762573 1.315514 1.681104 5.179014 1.801617 3.963759 l 0.07697 -2.810279 c 0.07899 -2.747491 0.100259 -3.770331 0.911442 -3.770331 z m 29.371717 0.520535 c 0.302801 0.07291 1.260828 0.708899 2.309998 1.546412 1.199053 0.957014 3.565763 2.785974 5.261045 4.063005 1.695282 1.277031 3.716657 3.115106 4.49037 4.086298 1.481599 1.859341 4.090348 8.003471 3.955657 9.317972 l -1.162595 1.118036 c -5.304591 -0.114437 -11.390996 -0.199505 -18.072877 -0.245077 -0.03443 -0.09317 -0.04962 -0.209632 -0.03342 -0.377742 0.909417 -3.192071 3.107004 -5.791706 4.874188 -8.699205 0.801056 -1.31754 2.768758 -3.860462 2.000109 -4.486319 l -1.463371 -1.629455 c -1.400582 -1.559578 -2.701918 -4.278713 -2.24721 -4.6919 0.01418 -0.01215 0.04456 -0.01013 0.08811 -0.002 z"
  />
</svg>